{"title":"The.Karate.Kid.2010.NORDiC.x264.AC3(5.1).mkv.Zen_Bud","uid":5768970,"size":951011503,"categoryP":"video","categoryS":"movies","magnet":"?xt=urn:btih:ba3fb38da6d9732b1274ff82cd4e81791cd65484&amp;dn=The.Karate.Kid.2010.NORDiC.x264.AC3%285.1%29.mkv.Zen_Bud&amp;tr=udp%3A%2F%2Ftracker.openbittorrent.com%3A80&amp;tr=udp%3A%2F%2Fopen.demonii.com%3A1337&amp;tr=udp%3A%2F%2Ftracker.coppersurfer.tk%3A6969&amp;tr=udp%3A%2F%2Fexodus.desync.com%3A6969","seeders":0,"leechers":0,"uploader":"Zen_Bud","files":-1,"time":1282033998,"description":"General\nComplete name                    : The.Karate.Kid.2010.NORDiC.x264.AC3(5.1).mkv\nFormat                           : Matroska\nFile size                        : 907 MiB\nDuration                         : 2h 7mn\nOverall bit rate                 : 996 Kbps\nWriting application              : HandBrake 0.9.4\n\nVideo\nID                               : 1\nFormat                           : AVC\nDuration                         : 2h 7mn\nBit rate                         : 537 Kbps\nWidth                            : 720 pixels\nHeight                           : 456 pixels\nDisplay aspect ratio             : 2.25:1\nStream size                      : 481 MiB (53%)\nWriting library                  : x264 core 79\n\nAudio\n\nFormat                           : AC-3\nDuration                         : 2h 7mn\nBit rate                         : 448 Kbps\nChannel(s)                       : 6 channels\nChannel positions                : Front: L C R, Side: L R, LFE\nSampling rate                    : 48.0 KHz\nStream size                      : 408 MiB (45%)\nLanguage                         : English\n\nText #1\nLanguage                         : Swedish\n\nText #2\nLanguage                         : Danish\n\nText #3\nLanguage                         : Norwegian\n\nText #4\nLanguage                         : Finnish\n\nMenu\n00:00:00.000                     : Chapter 1\n00:08:00.600                     : Chapter 2\n\n\n","torrent":{"xt":"urn:btih:ba3fb38da6d9732b1274ff82cd4e81791cd65484","amp;dn":"The.Karate.Kid.2010.NORDiC.x264.AC3%285.1%29.mkv.Zen_Bud","amp;tr":["udp%3A%2F%2Ftracker.openbittorrent.com%3A80","udp%3A%2F%2Fopen.demonii.com%3A1337","udp%3A%2F%2Ftracker.coppersurfer.tk%3A6969","udp%3A%2F%2Fexodus.desync.com%3A6969"],"infoHash":"ba3fb38da6d9732b1274ff82cd4e81791cd65484","infoHashBuffer":{"type":"Buffer","data":[186,63,179,141,166,217,115,43,18,116,255,130,205,78,129,121,28,214,84,132]},"announce":[],"urlList":[]}}